<?xml version="1.0" standalone="no"?><!DOCTYPE svg PUBLIC "-//W3C//DTD SVG 1.1//EN" "http://www.w3.org/Graphics/SVG/1.1/DTD/svg11.dtd">
<svg class="icon"
        height="200"
        p-id="7617"
        t="1565516248087"
        version="1.1"
        viewBox="0 0 1024 1024"
        width="200"
        xmlns="http://www.w3.org/2000/svg">
    <defs>
        <style type="text/css"></style>
    </defs>
    <path
            d="M704 192H234.666667v85.333333h469.333333c23.466667 0 42.666667 19.2 42.666667 42.666667v426.666667H490.666667v85.333333h341.333333V320c0-70.4-57.6-128-128-128z"
            fill="#90CAF9"
            p-id="7618"></path>
    <path
            d="M128 128h213.333333v213.333333H128z"
            fill="#D81B60"
            p-id="7619"></path>
    <path
            d="M682.666667 362.666667h213.333333v213.333333H682.666667zM341.333333 682.666667h213.333334v213.333333H341.333333z"
            fill="#2196F3"
            p-id="7620"></path>
    <path
            d="M554.666667 234.666667m-106.666667 0a106.666667 106.666667 0 1 0 213.333333 0 106.666667 106.666667 0 1 0-213.333333 0Z"
            fill="#2196F3"
            p-id="7621"></path>
    <path
            d="M789.333333 789.333333m-106.666666 0a106.666667 106.666667 0 1 0 213.333333 0 106.666667 106.666667 0 1 0-213.333333 0Z"
            fill="#2196F3"
            p-id="7622"></path>
</svg>